choreArte.ufo
<glyph name="exclam" format="2">
  <advance width="272"/>
  <unicode hex="0021"/>
  <outline>
    <contour>
      <point x="154" y="199" type="line"/>
      <point x="200" y="750" type="line"/>
      <point x="168" y="758"/>
      <point x="134" y="760"/>
      <point x="100" y="754" type="curve"/>
      <point x="114" y="201" type="line"/>
    </contour>
    <component base="period" xScale="1.0635" xyScale="-0.0371" yScale="1.0635" yxScale="0.0371" xOffset="17" yOffset="-7"/>
  </outline>
</glyph>
<glyph name="numbersign" format="2">
  <advance width="768"/>
  <unicode hex="0023"/>
  <outline>
    <contour>
      <point x="401" y="0" type="line"/>
      <point x="476" y="0" type="line"/>
      <point x="582" y="700" type="line"/>
      <point x="508" y="700" type="line"/>
    </contour>
    <contour>
      <point x="174" y="0" type="line"/>
      <point x="249" y="0" type="line"/>
      <point x="355" y="700" type="line"/>
      <point x="281" y="700" type="line"/>
    </contour>
    <contour>
      <point x="671" y="224" type="line"/>
      <point x="687" y="293" type="line"/>
      <point x="66" y="295" type="line"/>
      <point x="50" y="225" type="line"/>
    </contour>
    <contour>
      <point x="703" y="462" type="line"/>
      <point x="718" y="532" type="line"/>
      <point x="98" y="533" type="line"/>
      <point x="81" y="463" type="line"/>
    </contour>
  </outline>
</glyph>
<glyph name="parenleft" format="2">
  <advance width="258"/>
  <unicode hex="0028"/>
  <outline>
    <contour>
      <point x="174" y="-62" type="curve"/>
      <point x="233" y="-62" type="line"/>
      <point x="159" y="29"/>
      <point x="110" y="188"/>
      <point x="110" y="349" type="curve" smooth="yes"/>
      <point x="110" y="510"/>
      <point x="159" y="660"/>
      <point x="233" y="750" type="curve"/>
      <point x="174" y="750" type="line"/>
      <point x="82" y="679"/>
      <point x="25" y="518"/>
      <point x="25" y="349" type="curve" smooth="yes"/>
      <point x="25" y="178"/>
      <point x="82" y="8"/>
    </contour>
  </outline>
</glyph>
<glyph name="asterisk" format="2">
  <advance width="238"/>
  <unicode hex="002A"/>
  <outline>
    <contour>
      <point x="99" y="529" type="line"/>
      <point x="147" y="529" type="line"/>
      <point x="146" y="554"/>
      <point x="145" y="581"/>
      <point x="146" y="606" type="curve"/>
      <point x="211" y="588" type="line"/>
      <point x="221" y="637" type="line"/>
      <point x="153" y="647" type="line"/>
      <point x="163" y="669"/>
      <point x="173" y="693"/>
      <point x="182" y="715" type="curve"/>
      <point x="139" y="732" type="line"/>
      <point x="117" y="664" type="line"/>
      <point x="96" y="679"/>
      <point x="83" y="703"/>
      <point x="71" y="722" type="curve"/>
      <point x="37" y="688" type="line"/>
      <point x="48" y="670"/>
      <point x="65" y="657"/>
      <point x="93" y="638" type="curve"/>
      <point x="64" y="634"/>
      <point x="33" y="622"/>
      <point x="17" y="612" type="curve"/>
      <point x="36" y="566" type="line"/>
      <point x="56" y="582"/>
      <point x="82" y="598"/>
      <point x="107" y="602" type="curve"/>
    </contour>
  </outline>
</glyph>
<glyph name="comma" format="2">
  <advance width="143"/>
  <unicode hex="002C"/>
  <outline>
    <contour>
      <point x="39" y="-122" type="line"/>
      <point x="117" y="-73"/>
      <point x="141" y="18"/>
      <point x="130" y="101" type="curve"/>
      <point x="45" y="88" type="line"/>
      <point x="56" y="21"/>
      <point x="55" y="-49"/>
      <point x="10" y="-107" type="curve"/>
    </contour>
  </outline>
</glyph>
<glyph name="hyphen" format="2">
  <advance width="373"/>
  <unicode hex="002D"/>
  <outline>
    <contour>
      <point x="30" y="241" type="line"/>
      <point x="343" y="241" type="line"/>
      <point x="343" y="326" type="line"/>
      <point x="30" y="326" type="line"/>
    </contour>
  </outline>
</glyph>
<glyph name="period" format="2">
  <advance width="204"/>
  <unicode hex="002E"/>
  <outline>
    <contour>
      <point x="104" y="0" type="curve" smooth="yes"/>
      <point x="139" y="0"/>
      <point x="154" y="21"/>
      <point x="154" y="48" type="curve" smooth="yes"/>
      <point x="154" y="86"/>
      <point x="143" y="96"/>
      <point x="104" y="96" type="curve" smooth="yes"/>
      <point x="67" y="96"/>
      <point x="50" y="86"/>
      <point x="50" y="48" type="curve" smooth="yes"/>
      <point x="50" y="17"/>
      <point x="67" y="0"/>
    </contour>
  </outline>
</glyph>
<glyph name="question" format="2">
  <advance width="600"/>
  <unicode hex="003F"/>
  <outline>
    <contour>
      <point x="239" y="179" type="line"/>
      <point x="299" y="179" type="line"/>
      <point x="299" y="268" type="line"/>
      <point x="297" y="376"/>
      <point x="318" y="370"/>
      <point x="399" y="432" type="curve" smooth="yes"/>
      <point x="450" y="471"/>
      <point x="479" y="525"/>
      <point x="481" y="585" type="curve" smooth="yes"/>
      <point x="485" y="700"/>
      <point x="404" y="751"/>
      <point x="320" y="754" type="curve" smooth="yes"/>
      <point x="319" y="754" type="line" smooth="yes"/>
      <point x="262" y="756"/>
      <point x="166" y="724"/>
      <point x="123" y="689" type="curve"/>
      <point x="131" y="656"/>
      <point x="148" y="568"/>
      <point x="168" y="534" type="curve"/>
      <point x="203" y="543" type="line"/>
      <point x="214" y="563"/>
      <point x="224" y="665"/>
      <point x="229" y="700" type="curve"/>
      <point x="241" y="705"/>
      <point x="270" y="710"/>
      <point x="294" y="709" type="curve" smooth="yes"/>
      <point x="388" y="706"/>
      <point x="394" y="700"/>
      <point x="391" y="585" type="curve" smooth="yes"/>
      <point x="390" y="550"/>
      <point x="375" y="524"/>
      <point x="314" y="454" type="curve" smooth="yes"/>
      <point x="265" y="399"/>
      <point x="239" y="395"/>
      <point x="236" y="286" type="curve"/>
    </contour>
    <component base="period" xOffset="169" yOffset="-10"/>
  </outline>
</glyph>
<glyph name="A" format="2">
  <advance width="727"/>
  <unicode hex="0041"/>
  <outline>
    <contour>
      <point x="7" y="0" type="line"/>
      <point x="74" y="0" type="line"/>
      <point x="92" y="0" type="line"/>
      <point x="144" y="0" type="line"/>
      <point x="214" y="259" type="line"/>
      <point x="440" y="259" type="line"/>
      <point x="494" y="55" type="line"/>
      <point x="464" y="52"/>
      <point x="443" y="45"/>
      <point x="414" y="30" type="curve"/>
      <point x="414" y="0" type="line"/>
      <point x="499" y="0" type="line"/>
      <point x="499" y="37" type="line"/>
      <point x="509" y="0" type="line"/>
      <point x="609" y="0" type="line"/>
      <point x="412" y="700" type="line"/>
      <point x="332" y="700" type="line"/>
      <point x="322" y="700" type="line"/>
      <point x="272" y="700" type="line"/>
      <point x="89" y="55" type="line"/>
      <point x="57" y="52"/>
      <point x="38" y="46"/>
      <point x="7" y="30" type="curve"/>
    </contour>
    <contour>
      <point x="144" y="0" type="line"/>
      <point x="243" y="0" type="line"/>
      <point x="243" y="30" type="line"/>
      <point x="212" y="46"/>
      <point x="195" y="52"/>
      <point x="161" y="55" type="curve"/>
    </contour>
    <component base="_part.serif_base" xScale="-1" xOffset="787"/>
    <contour>
      <point x="228" y="312" type="line"/>
      <point x="322" y="641" type="line"/>
      <point x="332" y="641" type="line"/>
      <point x="426" y="312" type="line"/>
    </contour>
  </outline>
</glyph>
<glyph name="B" format="2">
  <advance width="639"/>
  <unicode hex="0042"/>
  <outline>
    <contour>
      <point x="125" y="21" type="line"/>
      <point x="418" y="21" type="line"/>
      <point x="548" y="21"/>
      <point x="619" y="91"/>
      <point x="619" y="192" type="curve"/>
      <point x="619" y="289"/>
      <point x="575" y="384"/>
      <point x="481" y="384" type="curve"/>
      <point x="563" y="415"/>
      <point x="583" y="465"/>
      <point x="583" y="514" type="curve"/>
      <point x="583" y="611"/>
      <point x="507" y="680"/>
      <point x="421" y="680" type="curve"/>
      <point x="125" y="680" type="line"/>
    </contour>
    <contour>
      <point x="42" y="21" type="line"/>
      <point x="127" y="21" type="line"/>
      <point x="127" y="76" type="line"/>
      <point x="101" y="71"/>
      <point x="70" y="61"/>
      <point x="42" y="51" type="curve"/>
    </contour>
    <contour>
      <point x="205" y="71" type="line"/>
      <point x="203" y="356" type="line"/>
      <point x="372" y="356" type="line" smooth="yes"/>
      <point x="459" y="356"/>
      <point x="519" y="276"/>
      <point x="519" y="192" type="curve"/>
      <point x="519" y="108"/>
      <point x="478" y="71"/>
      <point x="375" y="71" type="curve"/>
    </contour>
    <contour>
      <point x="127" y="625" type="curve"/>
      <point x="127" y="680" type="line"/>
      <point x="42" y="680" type="line"/>
      <point x="42" y="650" type="line"/>
      <point x="70" y="640"/>
      <point x="101" y="630"/>
    </contour>
    <contour>
      <point x="203" y="406" type="line"/>
      <point x="203" y="614" type="line"/>
      <point x="203" y="630" type="line"/>
      <point x="255" y="630"/>
      <point x="318" y="630"/>
      <point x="370" y="630" type="curve"/>
      <point x="484" y="630"/>
      <point x="483" y="557"/>
      <point x="483" y="514" type="curve"/>
      <point x="483" y="451"/>
      <point x="444" y="406"/>
      <point x="372" y="406" type="curve" smooth="yes"/>
    </contour>
  </outline>
</glyph>
<glyph name="C" format="2">
  <advance width="639"/>
  <unicode hex="0043"/>
  <outline>
    <contour>
      <point x="324" y="-10" type="curve" smooth="yes"/>
      <point x="430" y="-10"/>
      <point x="546" y="24"/>
      <point x="556" y="171" type="curve"/>
      <point x="556" y="171" type="line"/>
      <point x="537" y="171"/>
      <point x="538" y="171"/>
      <point x="503" y="171" type="curve"/>
      <point x="493" y="93"/>
      <point x="414" y="33"/>
      <point x="324" y="33" type="curve" smooth="yes"/>
      <point x="175" y="33"/>
      <point x="122" y="165"/>
      <point x="122" y="338" type="curve" smooth="yes"/>
      <point x="122" y="524"/>
      <point x="195" y="667"/>
      <point x="324" y="667" type="curve" smooth="yes"/>
      <point x="414" y="667"/>
      <point x="496" y="624"/>
      <point x="506" y="506" type="curve"/>
      <point x="550" y="506" type="line"/>
      <point x="550" y="734" type="line"/>
      <point x="509" y="734" type="line"/>
      <point x="503" y="663" type="line"/>
      <point x="469" y="688"/>
      <point x="403" y="710"/>
      <point x="324" y="710" type="curve" smooth="yes"/>
      <point x="107" y="710"/>
      <point x="22" y="541"/>
      <point x="22" y="338" type="curve" smooth="yes"/>
      <point x="22" y="148"/>
      <point x="87" y="-10"/>
    </contour>
  </outline>
</glyph>
<glyph name="D" format="2">
  <advance width="639"/>
  <unicode hex="0044"/>
  <outline>
    <contour>
      <point x="317" y="18" type="line"/>
      <point x="497" y="18"/>
      <point x="582" y="126"/>
      <point x="582" y="339" type="curve"/>
      <point x="582" y="552"/>
      <point x="497" y="668"/>
      <point x="317" y="674" type="curve"/>
      <point x="42" y="674" type="line"/>
      <point x="41" y="23" type="line"/>
    </contour>
    <contour>
      <point x="-30" y="23" type="line"/>
      <point x="55" y="23" type="line"/>
      <point x="55" y="78" type="line"/>
      <point x="29" y="73"/>
      <point x="-2" y="63"/>
      <point x="-30" y="53" type="curve"/>
    </contour>
    <contour>
      <point x="129" y="96" type="line"/>
      <point x="129" y="596" type="line"/>
      <point x="317" y="596" type="line"/>
      <point x="451" y="596"/>
      <point x="482" y="467"/>
      <point x="482" y="339" type="curve"/>
      <point x="482" y="211"/>
      <point x="450" y="112"/>
      <point x="317" y="96" type="curve"/>
    </contour>
    <contour>
      <point x="54" y="619" type="curve"/>
      <point x="54" y="674" type="line"/>
      <point x="-31" y="674" type="line"/>
      <point x="-31" y="644" type="line"/>
      <point x="-3" y="634"/>
      <point x="28" y="624"/>
    </contour>
  </outline>
</glyph>
<glyph name="G" format="2">
  <advance width="639"/>
  <unicode hex="0047"/>
  <outline>
    <contour>
      <point x="324" y="17" type="curve"/>
      <point x="440" y="17"/>
      <point x="566" y="21"/>
      <point x="566" y="198" type="curve"/>
      <point x="566" y="198" type="line"/>
      <point x="566" y="241"/>
      <point x="581" y="239"/>
      <point x="632" y="239" type="curve"/>
      <point x="632" y="274" type="line"/>
      <point x="415" y="274" type="line"/>
      <point x="415" y="239" type="line"/>
      <point x="466" y="239"/>
      <point x="499" y="240"/>
      <point x="499" y="198" type="curve"/>
      <point x="499" y="90"/>
      <point x="424" y="60"/>
      <point x="324" y="60" type="curve"/>
      <point x="182" y="60"/>
      <point x="132" y="192"/>
      <point x="132" y="318" type="curve"/>
      <point x="136" y="444"/>
      <point x="182" y="587"/>
      <point x="324" y="587" type="curve"/>
      <point x="424" y="587"/>
      <point x="516" y="494"/>
      <point x="516" y="426" type="curve"/>
      <point x="560" y="426" type="line"/>
      <point x="560" y="654" type="line"/>
      <point x="519" y="654" type="line"/>
      <point x="513" y="603" type="line"/>
      <point x="513" y="603"/>
      <point x="424" y="630"/>
      <point x="324" y="630" type="curve"/>
      <point x="95" y="630"/>
      <point x="32" y="461"/>
      <point x="32" y="318" type="curve"/>
      <point x="32" y="175"/>
      <point x="95" y="17"/>
    </contour>
  </outline>
</glyph>
<glyph name="H" format="2">
  <advance width="775"/>
  <unicode hex="0048"/>
  <outline>
    <contour>
      <point x="220" y="330" type="line"/>
      <point x="550" y="330" type="line"/>
      <point x="550" y="380" type="line"/>
      <point x="220" y="380" type="line"/>
    </contour>
    <component base="I"/>
    <component base="I" xOffset="395"/>
  </outline>
</glyph>
<glyph name="I" format="2">
  <advance width="380"/>
  <unicode hex="0049"/>
  <outline>
    <contour>
      <point x="145" y="0" type="line"/>
      <point x="235" y="0" type="line"/>
      <point x="235" y="700" type="line"/>
      <point x="145" y="700" type="line"/>
    </contour>
    <component base="_part.serif_base" xOffset="-40"/>
    <component base="_part.serif_base" xScale="-1" xOffset="420"/>
    <component base="_part.serif_base" yScale="-1" xOffset="-40" yOffset="700"/>
    <component base="_part.serif_base" xScale="-1" yScale="-1" xOffset="420" yOffset="700"/>
  </outline>
</glyph>
<glyph name="J" format="2">
  <advance width="500"/>
  <unicode hex="004A"/>
  <outline>
    <contour>
      <point x="176" y="-6" type="curve" smooth="yes"/>
      <point x="286" y="-6"/>
      <point x="352" y="51"/>
      <point x="352" y="204" type="curve" smooth="yes"/>
      <point x="352" y="298" type="line"/>
      <point x="262" y="298" type="line"/>
      <point x="262" y="206" type="line" smooth="yes"/>
      <point x="262" y="89"/>
      <point x="220" y="69"/>
      <point x="175" y="69" type="curve" smooth="yes"/>
      <point x="69" y="69"/>
      <point x="51" y="160"/>
      <point x="61" y="221" type="curve"/>
      <point x="18" y="221" type="line"/>
      <point x="-2" y="89"/>
      <point x="59" y="-6"/>
    </contour>
    <contour>
      <point x="262" y="298" type="line"/>
      <point x="352" y="298" type="line"/>
      <point x="354" y="700" type="line"/>
      <point x="264" y="700" type="line"/>
    </contour>
    <component base="_part.serif_base" yScale="-1" xOffset="79" yOffset="700"/>
    <component base="_part.serif_base" xScale="-1" yScale="-1" xOffset="539" yOffset="700"/>
  </outline>
</glyph>
<glyph name="K" format="2">
  <advance width="678"/>
  <unicode hex="004B"/>
  <outline>
    <contour>
      <point x="556" y="1" type="curve"/>
      <point x="678" y="1" type="line"/>
      <point x="678" y="19" type="line"/>
      <point x="662" y="20"/>
      <point x="636" y="29"/>
      <point x="618" y="44" type="curve"/>
      <point x="602" y="55"/>
      <point x="592" y="67"/>
      <point x="579" y="88" type="curve"/>
      <point x="366" y="448" type="line"/>
      <point x="457" y="555" type="line"/>
      <point x="489" y="590"/>
      <point x="522" y="625"/>
      <point x="561" y="654" type="curve"/>
      <point x="579" y="669"/>
      <point x="601" y="680"/>
      <point x="631" y="682" type="curve"/>
      <point x="631" y="699" type="line"/>
      <point x="479" y="699" type="line"/>
      <point x="469" y="667"/>
      <point x="483" y="624"/>
      <point x="448" y="606" type="curve"/>
      <point x="238" y="348" type="line"/>
      <point x="238" y="297" type="line"/>
      <point x="292" y="360" type="line"/>
      <point x="457" y="71" type="line"/>
      <point x="473" y="44"/>
      <point x="488" y="23"/>
      <point x="506" y="12" type="curve"/>
      <point x="522" y="1"/>
      <point x="540" y="1"/>
    </contour>
    <contour>
      <point x="70" y="0" type="line"/>
      <point x="191" y="0" type="line"/>
      <point x="191" y="141" type="line"/>
      <point x="137" y="141" type="line"/>
      <point x="137" y="81" type="line"/>
      <point x="137" y="55"/>
      <point x="126" y="39"/>
      <point x="115" y="31" type="curve"/>
      <point x="108" y="26"/>
      <point x="91" y="19"/>
      <point x="70" y="19" type="curve"/>
    </contour>
    <contour>
      <point x="191" y="0" type="line"/>
      <point x="314" y="0" type="line"/>
      <point x="314" y="19" type="line"/>
      <point x="293" y="19"/>
      <point x="275" y="26"/>
      <point x="268" y="31" type="curve"/>
      <point x="258" y="39"/>
      <point x="246" y="55"/>
      <point x="246" y="81" type="curve"/>
      <point x="246" y="141" type="line"/>
      <point x="187" y="141" type="line"/>
    </contour>
    <contour>
      <point x="137" y="128" type="line"/>
      <point x="246" y="128" type="line"/>
      <point x="246" y="606" type="line"/>
      <point x="137" y="606" type="line"/>
    </contour>
    <contour>
      <point x="137" y="559" type="line"/>
      <point x="191" y="559" type="line"/>
      <point x="191" y="700" type="line"/>
      <point x="70" y="700" type="line"/>
      <point x="70" y="680" type="line"/>
      <point x="91" y="680"/>
      <point x="108" y="674"/>
      <point x="115" y="669" type="curve"/>
      <point x="126" y="661"/>
      <point x="137" y="645"/>
      <point x="137" y="619" type="curve"/>
    </contour>
    <contour>
      <point x="191" y="559" type="line"/>
      <point x="246" y="559" type="line"/>
      <point x="246" y="619" type="line"/>
      <point x="246" y="645"/>
      <point x="258" y="661"/>
      <point x="268" y="669" type="curve"/>
      <point x="275" y="674"/>
      <point x="283" y="680"/>
      <point x="304" y="680" type="curve"/>
      <point x="304" y="700" type="line"/>
      <point x="188" y="700" type="line"/>
    </contour>
    <contour>
      <point x="448" y="606" type="curve"/>
      <point x="502" y="611" type="line"/>
      <point x="507" y="699" type="line"/>
      <point x="419" y="699" type="line"/>
      <point x="419" y="683" type="line"/>
      <point x="434" y="683"/>
      <point x="445" y="679"/>
      <point x="449" y="676" type="curve"/>
      <point x="457" y="670"/>
      <point x="467" y="659"/>
      <point x="467" y="645" type="curve"/>
      <point x="467" y="634"/>
      <point x="457" y="616"/>
    </contour>
    <contour>
      <point x="467" y="612" type="move"/>
    </contour>
  </outline>
</glyph>
<glyph name="L" format="2">
  <advance width="575"/>
  <unicode hex="004C"/>
  <outline>
    <contour>
      <point x="125" y="0" type="line"/>
      <point x="210" y="0" type="line"/>
      <point x="210" y="700" type="line"/>
      <point x="125" y="700" type="line"/>
    </contour>
    <component base="_part.serif_base" xOffset="-60"/>
    <contour>
      <point x="200" y="0" type="line"/>
      <point x="526" y="0" type="line"/>
      <point x="526" y="54" type="line"/>
      <point x="200" y="54" type="line"/>
    </contour>
    <contour>
      <point x="458" y="54" type="line"/>
      <point x="526" y="54" type="line"/>
      <point x="526" y="129" type="line"/>
      <point x="499" y="129" type="line"/>
    </contour>
    <component base="_part.serif_top" xOffset="-60" yOffset="250"/>
  </outline>
</glyph>
<glyph name="N" format="2">
  <advance width="795"/>
  <unicode hex="004E"/>
  <outline>
    <contour>
      <point x="539" y="0" type="line"/>
      <point x="640" y="0" type="line"/>
      <point x="640" y="0" type="line"/>
      <point x="205" y="700" type="line"/>
      <point x="205" y="530" type="line"/>
    </contour>
    <component base="serifHH" xScale="-1" xOffset="235"/>
    <contour>
      <point x="135" y="0" type="line"/>
      <point x="205" y="0" type="line"/>
      <point x="205" y="530" type="line"/>
      <point x="205" y="534" type="line"/>
      <point x="205" y="555" type="line"/>
      <point x="205" y="700" type="line"/>
      <point x="135" y="700" type="line"/>
    </contour>
    <component base="serifHH" xOffset="105"/>
    <component base="serifHH" xScale="-1" yScale="-1" xOffset="235" yOffset="700"/>
    <contour>
      <point x="570" y="0" type="line"/>
      <point x="640" y="0" type="line"/>
      <point x="640" y="700" type="line"/>
      <point x="570" y="700" type="line"/>
      <point x="570" y="109" type="line"/>
    </contour>
    <component base="serifHH" xScale="-1" yScale="-1" xOffset="670" yOffset="700"/>
    <component base="serifHH" yScale="-1" xOffset="540" yOffset="700"/>
  </outline>
</glyph>
<glyph name="P" format="2">
  <advance width="591"/>
  <unicode hex="0050"/>
  <outline>
    <contour>
      <point x="145" y="0" type="line"/>
      <point x="235" y="0" type="line"/>
      <point x="234" y="255" type="line"/>
      <point x="295" y="255" type="line" smooth="yes"/>
      <point x="461" y="255"/>
      <point x="561" y="335"/>
      <point x="561" y="479" type="curve" smooth="yes"/>
      <point x="561" y="621"/>
      <point x="474" y="700"/>
      <point x="307" y="700" type="curve" smooth="yes"/>
      <point x="145" y="700" type="line"/>
    </contour>
    <component base="_part.serif_base" xOffset="-40"/>
    <component base="_part.serif_base" xScale="-1.2" xOffset="459"/>
    <component base="_part.serif_base" yScale="-1" xOffset="-40" yOffset="700"/>
    <contour>
      <point x="234" y="305" type="line"/>
      <point x="236" y="650" type="line"/>
      <point x="287" y="650" type="line" smooth="yes"/>
      <point x="402" y="650"/>
      <point x="466" y="591"/>
      <point x="466" y="476" type="curve" smooth="yes"/>
      <point x="466" y="346"/>
      <point x="424" y="305"/>
      <point x="323" y="305" type="curve" smooth="yes"/>
    </contour>
  </outline>
</glyph>
<glyph name="Q" format="2">
  <advance width="690"/>
  <unicode hex="0051"/>
  <outline>
    <contour>
      <point x="614" y="-125" type="curve" smooth="yes"/>
      <point x="640" y="-125"/>
      <point x="656" y="-119"/>
      <point x="670" y="-109" type="curve"/>
      <point x="670" y="-77" type="line"/>
      <point x="666" y="-78"/>
      <point x="660" y="-80"/>
      <point x="652" y="-80" type="curve" smooth="yes"/>
      <point x="616" y="-80"/>
      <point x="588" y="-36"/>
      <point x="549" y="14" type="curve" smooth="yes"/>
      <point x="448" y="143" type="line" smooth="yes"/>
      <point x="412" y="189"/>
      <point x="376" y="225"/>
      <point x="321" y="225" type="curve" smooth="yes"/>
      <point x="299" y="225"/>
      <point x="276" y="218"/>
      <point x="260" y="209" type="curve"/>
      <point x="260" y="183" type="line"/>
      <point x="266" y="184"/>
      <point x="272" y="185"/>
      <point x="280" y="185" type="curve" smooth="yes"/>
      <point x="314" y="185"/>
      <point x="333" y="150"/>
      <point x="381" y="91" type="curve" smooth="yes"/>
      <point x="463" y="-11" type="line" smooth="yes"/>
      <point x="524" y="-86"/>
      <point x="559" y="-125"/>
    </contour>
    <component base="O"/>
  </outline>
</glyph>
<glyph name="S" format="2">
  <advance width="518"/>
  <unicode hex="0053"/>
  <outline>
    <contour>
      <point x="232" y="-9" type="curve" smooth="yes"/>
      <point x="347" y="-9"/>
      <point x="473" y="36"/>
      <point x="473" y="191" type="curve" smooth="yes"/>
      <point x="473" y="412"/>
      <point x="134" y="386"/>
      <point x="134" y="553" type="curve" smooth="yes"/>
      <point x="134" y="619"/>
      <point x="182" y="661"/>
      <point x="253" y="661" type="curve" smooth="yes"/>
      <point x="339" y="661"/>
      <point x="390" y="619"/>
      <point x="401" y="520" type="curve"/>
      <point x="437" y="520" type="line"/>
      <point x="440" y="672" type="line"/>
      <point x="396" y="696"/>
      <point x="341" y="710"/>
      <point x="264" y="710" type="curve" smooth="yes"/>
      <point x="160" y="710"/>
      <point x="48" y="657"/>
      <point x="48" y="526" type="curve" smooth="yes"/>
      <point x="48" y="299"/>
      <point x="387" y="347"/>
      <point x="387" y="161" type="curve" smooth="yes"/>
      <point x="387" y="86"/>
      <point x="331" y="40"/>
      <point x="251" y="40" type="curve" smooth="yes"/>
      <point x="166" y="40"/>
      <point x="101" y="73"/>
      <point x="77" y="184" type="curve"/>
      <point x="47" y="183" type="line"/>
      <point x="45" y="44" type="line"/>
      <point x="97" y="11"/>
      <point x="158" y="-9"/>
    </contour>
  </outline>
</glyph>
<glyph name="T" format="2">
  <advance width="580"/>
  <unicode hex="0054"/>
  <outline>
    <contour>
      <point x="247" y="0" type="line"/>
      <point x="337" y="0" type="line"/>
      <point x="330" y="650" type="line"/>
      <point x="247" y="650" type="line"/>
    </contour>
    <contour>
      <point x="162" y="0" type="line"/>
      <point x="258" y="0" type="line"/>
      <point x="247" y="60" type="line"/>
      <point x="211" y="52"/>
      <point x="191" y="45"/>
      <point x="158" y="30" type="curve"/>
    </contour>
    <contour>
      <point x="326" y="0" type="line"/>
      <point x="422" y="0" type="line"/>
      <point x="426" y="30" type="line"/>
      <point x="393" y="45"/>
      <point x="373" y="52"/>
      <point x="337" y="60" type="curve"/>
    </contour>
    <contour>
      <point x="32" y="535" type="line"/>
      <point x="62" y="535" type="line"/>
      <point x="85" y="596"/>
      <point x="99" y="639"/>
      <point x="112" y="700" type="curve"/>
      <point x="32" y="700" type="line"/>
    </contour>
    <contour>
      <point x="49" y="650" type="line"/>
      <point x="536" y="650" type="line"/>
      <point x="536" y="700" type="line"/>
      <point x="49" y="700" type="line"/>
    </contour>
    <contour>
      <point x="521" y="535" type="curve"/>
      <point x="551" y="535" type="line"/>
      <point x="551" y="700" type="line"/>
      <point x="476" y="700" type="line"/>
      <point x="486" y="641"/>
      <point x="497" y="597"/>
    </contour>
  </outline>
</glyph>
<glyph name="U" format="2">
  <advance width="755"/>
  <unicode hex="0055"/>
  <outline>
    <contour>
      <point x="377" y="-10" type="curve" smooth="yes"/>
      <point x="537" y="-10"/>
      <point x="611" y="95"/>
      <point x="611" y="247" type="curve" smooth="yes"/>
      <point x="610" y="700" type="line"/>
      <point x="540" y="700" type="line"/>
      <point x="541" y="251" type="line" smooth="yes"/>
      <point x="541" y="118"/>
      <point x="509" y="54"/>
      <point x="397" y="54" type="curve" smooth="yes"/>
      <point x="292" y="54"/>
      <point x="232" y="108"/>
      <point x="233" y="251" type="curve" smooth="yes"/>
      <point x="235" y="700" type="line"/>
      <point x="145" y="700" type="line"/>
      <point x="144" y="257" type="line" smooth="yes"/>
      <point x="144" y="78"/>
      <point x="217" y="-10"/>
    </contour>
    <component base="_part.serif_base" yScale="-1" xOffset="-40" yOffset="700"/>
    <component base="_part.serif_base" xScale="-1" yScale="-1" xOffset="420" yOffset="700"/>
    <component base="_part.serif_base" yScale="-1" xOffset="355" yOffset="700"/>
    <component base="_part.serif_base" xScale="-1" yScale="-1" xOffset="795" yOffset="700"/>
  </outline>
</glyph>
<glyph name="W" format="2">
  <advance width="990"/>
  <unicode hex="0057"/>
  <guideline x="383" y="679" angle="0"/>
  <guideline x="651" y="640" angle="0"/>
  <guideline x="662" y="646" angle="0"/>
  <guideline x="770" y="152" angle="0"/>
  <guideline x="944" y="-1" angle="0"/>
  <guideline x="718" y="30" angle="0"/>
  <guideline x="222" y="711" angle="90"/>
  <outline>
    <contour>
      <point x="632" y="6" type="line"/>
      <point x="689" y="38" type="line"/>
      <point x="865" y="647" type="line"/>
      <point x="865" y="700" type="line"/>
      <point x="812" y="700" type="line"/>
      <point x="812" y="647" type="line"/>
      <point x="674" y="160" type="line"/>
      <point x="497" y="642" type="line"/>
      <point x="497" y="701" type="line"/>
      <point x="403" y="701" type="line"/>
      <point x="403" y="644" type="line"/>
    </contour>
    <contour>
      <point x="298" y="3" type="line"/>
      <point x="339" y="36" type="line"/>
      <point x="487" y="561" type="line"/>
      <point x="440" y="578" type="line"/>
      <point x="326" y="160" type="line"/>
      <point x="157" y="647" type="line"/>
      <point x="155" y="701" type="line"/>
      <point x="65" y="701" type="line"/>
      <point x="65" y="645" type="line"/>
    </contour>
    <component base="_part.serif_base" yScale="-1" xOffset="-120" yOffset="701"/>
    <component base="_part.serif_base" xScale="-1" yScale="-1" xOffset="340" yOffset="701"/>
    <component base="_part.serif_base" yScale="-1" xOffset="218" yOffset="701"/>
    <component base="_part.serif_base" xScale="-1" yScale="-1" xOffset="682" yOffset="701"/>
    <component base="_part.serif_base" yScale="-1" xOffset="627" yOffset="700"/>
    <component base="_part.serif_base" xScale="-1" yScale="-1" xOffset="1050" yOffset="700"/>
  </outline>
</glyph>
<glyph name="X" format="2">
  <advance width="720"/>
  <unicode hex="0058"/>
  <guideline x="358" y="646" angle="0"/>
  <guideline x="128" y="666" angle="90"/>
  <guideline x="396" y="53" angle="0"/>
  <outline>
    <contour>
      <point x="522" y="0" type="line"/>
      <point x="591" y="1" type="line"/>
      <point x="590" y="51" type="line"/>
      <point x="245" y="648" type="line"/>
      <point x="244" y="701" type="line"/>
      <point x="147" y="701" type="line"/>
      <point x="147" y="648" type="line"/>
    </contour>
    <component base="_part.serif_base" yScale="0.9958" xOffset="-60"/>
    <contour>
      <point x="125" y="0" type="line"/>
      <point x="188" y="0" type="line"/>
      <point x="188" y="53" type="line"/>
      <point x="550" y="649" type="line"/>
      <point x="550" y="701" type="line"/>
      <point x="526" y="701" type="line"/>
      <point x="127" y="53" type="line"/>
    </contour>
    <component base="_part.serif_base" xScale="-1" xOffset="373"/>
    <component base="_part.serif_base" xScale="-1" xOffset="776" yOffset="1"/>
    <component base="_part.serif_base" yScale="-1" xOffset="-38" yOffset="701"/>
    <component base="_part.serif_base" xScale="-1" yScale="-1" xOffset="429" yOffset="701"/>
    <component base="_part.serif_base" xScale="-1" yScale="-1" xOffset="735" yOffset="701"/>
  </outline>
</glyph>
<glyph name="Z" format="2">
  <advance width="481"/>
  <unicode hex="005A"/>
  <outline>
    <contour>
      <point x="463" y="-1" type="line"/>
      <point x="463" y="54" type="line"/>
      <point x="110" y="54" type="line"/>
      <point x="471" y="670" type="line"/>
      <point x="456" y="699" type="line"/>
      <point x="15" y="699" type="line"/>
      <point x="15" y="650" type="line"/>
      <point x="363" y="647" type="line"/>
      <point x="356" y="663" type="line"/>
      <point x="10" y="42" type="line"/>
      <point x="22" y="2" type="line"/>
    </contour>
    <contour>
      <point x="374" y="54" type="line"/>
      <point x="463" y="54" type="line"/>
      <point x="463" y="196" type="line"/>
      <point x="422" y="196" type="line"/>
    </contour>
    <contour>
      <point x="15" y="508" type="line"/>
      <point x="56" y="508" type="line"/>
      <point x="104" y="650" type="line"/>
      <point x="15" y="650" type="line"/>
    </contour>
  </outline>
</glyph>
<glyph name="a" format="2">
  <advance width="521"/>
  <unicode hex="0061"/>
  <outline>
    <contour>
      <point x="343" y="-6" type="curve"/>
      <point x="422" y="-6"/>
      <point x="468" y="6"/>
      <point x="481" y="31" type="curve"/>
      <point x="481" y="48" type="line"/>
      <point x="415" y="56" type="line"/>
      <point x="414" y="377" type="line" smooth="yes"/>
      <point x="412" y="479"/>
      <point x="345" y="513"/>
      <point x="267" y="513" type="curve" smooth="yes"/>
      <point x="200" y="513"/>
      <point x="124" y="488"/>
      <point x="75" y="459" type="curve"/>
      <point x="76" y="415"/>
      <point x="87" y="376"/>
      <point x="107" y="341" type="curve"/>
      <point x="127" y="341" type="line"/>
      <point x="175" y="453" type="line"/>
      <point x="316" y="498"/>
      <point x="337" y="399"/>
      <point x="324" y="277" type="curve"/>
      <point x="176" y="275"/>
      <point x="38" y="263"/>
      <point x="40" y="118" type="curve" smooth="yes"/>
      <point x="43" y="-50"/>
      <point x="297" y="-49"/>
      <point x="323" y="103" type="curve"/>
      <point x="323" y="100"/>
      <point x="323" y="97"/>
      <point x="324" y="95" type="curve" smooth="yes"/>
      <point x="328" y="27"/>
      <point x="331" y="-7"/>
    </contour>
    <contour>
      <point x="325" y="130" type="line"/>
      <point x="186" y="-102"/>
      <point x="-23" y="255"/>
      <point x="325" y="232" type="curve"/>
    </contour>
  </outline>
</glyph>
<glyph name="b" format="2">
  <advance width="606"/>
  <unicode hex="0062"/>
  <outline>
    <contour>
      <point x="318" y="-1" type="curve" smooth="yes"/>
      <point x="468" y="-1"/>
      <point x="546" y="134"/>
      <point x="546" y="250" type="curve" smooth="yes"/>
      <point x="546" y="390"/>
      <point x="489" y="509"/>
      <point x="361" y="509" type="curve" smooth="yes"/>
      <point x="276" y="509"/>
      <point x="223" y="480"/>
      <point x="193" y="451" type="curve"/>
      <point x="207" y="417" type="line"/>
      <point x="222" y="440"/>
      <point x="284" y="461"/>
      <point x="319" y="461" type="curve" smooth="yes"/>
      <point x="415" y="461"/>
      <point x="451" y="418"/>
      <point x="451" y="231" type="curve" smooth="yes"/>
      <point x="451" y="111"/>
      <point x="426" y="53"/>
      <point x="356" y="53" type="curve" smooth="yes"/>
      <point x="292" y="53"/>
      <point x="255" y="75"/>
      <point x="210" y="96" type="curve"/>
      <point x="125" y="63" type="line"/>
      <point x="168" y="35"/>
      <point x="234" y="-1"/>
    </contour>
    <component base="_part.fuste" yScale="0.96" yOffset="63"/>
    <component base="_part.serif_top" xOffset="-60" yOffset="249"/>
  </outline>
</glyph>
<glyph name="c" format="2">
  <advance width="506"/>
  <unicode hex="0063"/>
  <outline>
    <contour>
      <point x="271" y="-9" type="curve" smooth="yes"/>
      <point x="335" y="-9"/>
      <point x="397" y="27"/>
      <point x="443" y="70" type="curve"/>
      <point x="424" y="99" type="line"/>
      <point x="390" y="73"/>
      <point x="354" y="56"/>
      <point x="299" y="56" type="curve" smooth="yes"/>
      <point x="207" y="56"/>
      <point x="153" y="128"/>
      <point x="153" y="265" type="curve" smooth="yes"/>
      <point x="153" y="421"/>
      <point x="194" y="463"/>
      <point x="253" y="463" type="curve" smooth="yes"/>
      <point x="297" y="463"/>
      <point x="343" y="426"/>
      <point x="387" y="395" type="curve"/>
      <point x="435" y="458" type="line"/>
      <point x="397" y="493"/>
      <point x="343" y="511"/>
      <point x="281" y="511" type="curve" smooth="yes"/>
      <point x="145" y="511"/>
      <point x="63" y="409"/>
      <point x="63" y="226" type="curve" smooth="yes"/>
      <point x="63" y="100"/>
      <point x="127" y="-9"/>
    </contour>
  </outline>
</glyph>
<glyph name="d" format="2">
  <advance width="600"/>
  <unicode hex="0064"/>
  <outline>
    <contour>
      <point x="278" y="-10" type="curve" smooth="yes"/>
      <point x="338" y="-10"/>
      <point x="408" y="76"/>
      <point x="460" y="98" type="curve"/>
      <point x="390" y="145" type="line"/>
      <point x="373" y="119"/>
      <point x="338" y="44"/>
      <point x="265" y="44" type="curve" smooth="yes"/>
      <point x="177" y="44"/>
      <point x="145" y="113"/>
      <point x="145" y="219" type="curve" smooth="yes"/>
      <point x="145" y="403"/>
      <point x="185" y="452"/>
      <point x="274" y="452" type="curve" smooth="yes"/>
      <point x="363" y="452"/>
      <point x="368" y="426"/>
      <point x="389" y="418" type="curve"/>
      <point x="429" y="450" type="line"/>
      <point x="390" y="479"/>
      <point x="367" y="500"/>
      <point x="265" y="500" type="curve" smooth="yes"/>
      <point x="133" y="500"/>
      <point x="50" y="394"/>
      <point x="50" y="241" type="curve" smooth="yes"/>
      <point x="50" y="125"/>
      <point x="128" y="-10"/>
    </contour>
    <component base="_part.serif_base" xScale="-1" xOffset="653"/>
    <component base="_part.fuste" xScale="-1" yScale="1.0515" xOffset="593"/>
    <component base="_part.serif_top" xOffset="198" yOffset="246"/>
  </outline>
</glyph>
<glyph name="e" format="2">
  <advance width="501"/>
  <unicode hex="0065"/>
  <outline>
    <contour>
      <point x="277" y="-10" type="curve" smooth="yes"/>
      <point x="337" y="-10"/>
      <point x="410" y="36"/>
      <point x="456" y="79" type="curve"/>
      <point x="443" y="104" type="line"/>
      <point x="409" y="86"/>
      <point x="361" y="48"/>
      <point x="286" y="48" type="curve" smooth="yes"/>
      <point x="178" y="48"/>
      <point x="134" y="50"/>
      <point x="135" y="271" type="curve"/>
      <point x="459" y="271" type="line"/>
      <point x="460" y="286"/>
      <point x="461" y="299"/>
      <point x="461" y="312" type="curve" smooth="yes"/>
      <point x="461" y="451"/>
      <point x="370" y="510"/>
      <point x="280" y="510" type="curve" smooth="yes"/>
      <point x="170" y="510"/>
      <point x="40" y="416"/>
      <point x="40" y="238" type="curve" smooth="yes"/>
      <point x="40" y="101"/>
      <point x="130" y="-10"/>
    </contour>
    <contour>
      <point x="137" y="314" type="line"/>
      <point x="149" y="423"/>
      <point x="213" y="459"/>
      <point x="271" y="460" type="curve" smooth="yes"/>
      <point x="385" y="461"/>
      <point x="384" y="457"/>
      <point x="384" y="314" type="curve"/>
    </contour>
  </outline>
</glyph>
<glyph name="f" format="2">
  <advance width="452"/>
  <unicode hex="0066"/>
  <outline>
    <contour>
      <point x="92" y="500" type="line"/>
      <point x="177" y="500" type="line"/>
      <point x="177" y="595" type="line" smooth="yes"/>
      <point x="177" y="681"/>
      <point x="196" y="715"/>
      <point x="241" y="715" type="curve" smooth="yes"/>
      <point x="296" y="715"/>
      <point x="326" y="694"/>
      <point x="354" y="664" type="curve"/>
      <point x="384" y="693" type="line"/>
      <point x="361" y="726"/>
      <point x="334" y="760"/>
      <point x="257" y="760" type="curve" smooth="yes"/>
      <point x="157" y="760"/>
      <point x="92" y="695"/>
      <point x="92" y="595" type="curve" smooth="yes"/>
    </contour>
    <contour>
      <point x="92" y="1" type="line"/>
      <point x="177" y="1" type="line"/>
      <point x="177" y="460" type="line"/>
      <point x="92" y="460" type="line"/>
    </contour>
    <contour>
      <point x="22" y="460" type="line"/>
      <point x="324" y="460" type="line"/>
      <point x="324" y="500" type="line"/>
      <point x="22" y="500" type="line"/>
    </contour>
  </outline>
</glyph>
<glyph name="g" format="2">
  <advance width="497"/>
  <unicode hex="0067"/>
  <outline>
    <contour>
      <point x="225" y="-221" type="curve" smooth="yes"/>
      <point x="338" y="-221"/>
      <point x="478" y="-165"/>
      <point x="478" y="-28" type="curve" smooth="yes"/>
      <point x="478" y="46"/>
      <point x="426" y="81"/>
      <point x="324" y="81" type="curve" smooth="yes"/>
      <point x="184" y="81" type="line" smooth="yes"/>
      <point x="135" y="81"/>
      <point x="117" y="99"/>
      <point x="117" y="130" type="curve" smooth="yes"/>
      <point x="117" y="151"/>
      <point x="132" y="173"/>
      <point x="152" y="191" type="curve"/>
      <point x="130" y="200" type="line"/>
      <point x="85" y="170"/>
      <point x="36" y="124"/>
      <point x="36" y="77" type="curve" smooth="yes"/>
      <point x="36" y="4"/>
      <point x="104" y="-4"/>
      <point x="198" y="-4" type="curve" smooth="yes"/>
      <point x="334" y="-4" type="line" smooth="yes"/>
      <point x="395" y="-4"/>
      <point x="403" y="-7"/>
      <point x="403" y="-64" type="curve" smooth="yes"/>
      <point x="403" y="-164"/>
      <point x="340" y="-178"/>
      <point x="241" y="-178" type="curve" smooth="yes"/>
      <point x="173" y="-178"/>
      <point x="123" y="-147"/>
      <point x="123" y="-89" type="curve" smooth="yes"/>
      <point x="123" y="-54"/>
      <point x="136" y="-22"/>
      <point x="152" y="5" type="curve"/>
      <point x="129" y="8" type="line"/>
      <point x="90" y="-28"/>
      <point x="41" y="-61"/>
      <point x="41" y="-119" type="curve" smooth="yes"/>
      <point x="41" y="-188"/>
      <point x="109" y="-221"/>
    </contour>
    <contour>
      <point x="239" y="162" type="curve" smooth="yes"/>
      <point x="330" y="162"/>
      <point x="428" y="223"/>
      <point x="428" y="340" type="curve" smooth="yes"/>
      <point x="428" y="377"/>
      <point x="418" y="424"/>
      <point x="381" y="463" type="curve" smooth="yes"/>
      <point x="352" y="494"/>
      <point x="311" y="510"/>
      <point x="258" y="510" type="curve" smooth="yes"/>
      <point x="164" y="510"/>
      <point x="70" y="447"/>
      <point x="70" y="323" type="curve" smooth="yes"/>
      <point x="70" y="198"/>
      <point x="159" y="162"/>
    </contour>
    <contour>
      <point x="249" y="206" type="curve" smooth="yes"/>
      <point x="182" y="206"/>
      <point x="154" y="240"/>
      <point x="154" y="348" type="curve" smooth="yes"/>
      <point x="154" y="468"/>
      <point x="163" y="469"/>
      <point x="247" y="469" type="curve" smooth="yes"/>
      <point x="314" y="469"/>
      <point x="345" y="428"/>
      <point x="345" y="323" type="curve" smooth="yes"/>
      <point x="345" y="209"/>
      <point x="336" y="206"/>
    </contour>
    <contour>
      <point x="496" y="447" type="curve"/>
      <point x="515" y="466" type="line"/>
      <point x="513" y="481"/>
      <point x="508" y="498"/>
      <point x="501" y="508" type="curve" smooth="yes"/>
      <point x="493" y="517"/>
      <point x="485" y="518"/>
      <point x="471" y="516" type="curve" smooth="yes"/>
      <point x="447" y="513"/>
      <point x="399" y="502"/>
      <point x="350" y="486" type="curve"/>
      <point x="350" y="465" type="line"/>
      <point x="392" y="461"/>
      <point x="449" y="459"/>
    </contour>
  </outline>
</glyph>
<glyph name="h" format="2">
  <advance width="629"/>
  <unicode hex="0068"/>
  <outline>
    <contour>
      <point x="115" y="0" type="line"/>
      <point x="200" y="0" type="line"/>
      <point x="200" y="700" type="line"/>
      <point x="115" y="700" type="line"/>
    </contour>
    <component base="_part.serif_base" xScale="-1" xOffset="699"/>
    <component base="_part.n" xOffset="115"/>
    <component base="_part.serif_top" xOffset="-70" yOffset="250"/>
  </outline>
</glyph>
<glyph name="k" format="2">
  <advance width="600"/>
  <unicode hex="006B"/>
  <outline>
    <contour>
      <point x="434" y="0" type="line"/>
      <point x="547" y="1" type="line"/>
      <point x="312" y="289" type="line"/>
      <point x="275" y="257" type="line"/>
    </contour>
    <contour>
      <point x="73" y="0" type="line"/>
      <point x="177" y="0" type="line"/>
      <point x="177" y="118" type="line"/>
      <point x="131" y="118" type="line"/>
      <point x="131" y="68" type="line"/>
      <point x="131" y="47"/>
      <point x="121" y="33"/>
      <point x="112" y="27" type="curve"/>
      <point x="106" y="23"/>
      <point x="91" y="17"/>
      <point x="73" y="17" type="curve"/>
    </contour>
    <contour>
      <point x="179" y="0" type="line"/>
      <point x="283" y="0" type="line"/>
      <point x="283" y="17" type="line"/>
      <point x="265" y="17"/>
      <point x="250" y="23"/>
      <point x="244" y="27" type="curve"/>
      <point x="235" y="33"/>
      <point x="225" y="47"/>
      <point x="225" y="68" type="curve"/>
      <point x="225" y="118" type="line"/>
      <point x="179" y="118" type="line"/>
    </contour>
    <contour>
      <point x="131" y="0" type="line"/>
      <point x="225" y="0" type="line"/>
      <point x="225" y="723" type="line"/>
      <point x="131" y="723" type="line"/>
    </contour>
    <contour>
      <point x="131" y="107" type="move"/>
    </contour>
    <contour>
      <point x="225" y="107" type="move"/>
    </contour>
    <contour>
      <point x="492" y="1" type="line"/>
      <point x="548" y="1" type="line"/>
      <point x="548" y="63" type="line"/>
      <point x="531" y="54"/>
      <point x="513" y="45"/>
      <point x="492" y="68" type="curve"/>
    </contour>
    <contour>
      <point x="208" y="188" type="line"/>
      <point x="492" y="426" type="line"/>
      <point x="408" y="419" type="line"/>
      <point x="208" y="234" type="line"/>
    </contour>
    <contour>
      <point x="408" y="391" type="move"/>
    </contour>
    <contour>
      <point x="131" y="584" type="line"/>
      <point x="225" y="584" type="line"/>
      <point x="225" y="748" type="line"/>
      <point x="193" y="744"/>
      <point x="162" y="737"/>
      <point x="130" y="727" type="curve"/>
      <point x="99" y="719"/>
      <point x="73" y="710"/>
      <point x="44" y="701" type="curve"/>
      <point x="44" y="666" type="line"/>
      <point x="67" y="663"/>
      <point x="83" y="659"/>
      <point x="89" y="655" type="curve"/>
      <point x="98" y="649"/>
      <point x="130" y="635"/>
      <point x="130" y="614" type="curve"/>
    </contour>
    <contour>
      <point x="408" y="404" type="line"/>
      <point x="454" y="404" type="line"/>
      <point x="454" y="500" type="line"/>
      <point x="373" y="500" type="line"/>
      <point x="373" y="481" type="line"/>
      <point x="378" y="480"/>
      <point x="388" y="479"/>
      <point x="394" y="475" type="curve"/>
      <point x="403" y="469"/>
      <point x="408" y="451"/>
      <point x="408" y="430" type="curve"/>
    </contour>
    <contour>
      <point x="446" y="404" type="line"/>
      <point x="474" y="421" type="line"/>
      <point x="492" y="426" type="line"/>
      <point x="492" y="447"/>
      <point x="497" y="469"/>
      <point x="506" y="475" type="curve"/>
      <point x="512" y="479"/>
      <point x="522" y="480"/>
      <point x="527" y="481" type="curve"/>
      <point x="527" y="500" type="line"/>
      <point x="446" y="500" type="line"/>
    </contour>
  </outline>
</glyph>
<glyph name="l" format="2">
  <advance width="335"/>
  <unicode hex="006C"/>
  <outline>
    <contour>
      <point x="125" y="0" type="line"/>
      <point x="210" y="0" type="line"/>
      <point x="210" y="700" type="line"/>
      <point x="125" y="700" type="line"/>
    </contour>
    <component base="_part.serif_base" xOffset="-60"/>
    <component base="_part.serif_base" xScale="-1" xOffset="395"/>
    <component base="_part.serif_top" xOffset="-60" yOffset="250"/>
  </outline>
</glyph>
<glyph name="n" format="2">
  <advance width="639"/>
  <unicode hex="006E"/>
  <outline>
    <contour>
      <point x="108" y="1" type="line"/>
      <point x="193" y="1" type="line"/>
      <point x="193" y="474.40482" type="line"/>
      <point x="108" y="474.40482" type="line"/>
    </contour>
    <component base="_part.serif_base" xScale="-1" xOffset="692"/>
    <component base="_part.serif_top" xOffset="-77" yOffset="5"/>
    <component base="_part.n" xOffset="108"/>
  </outline>
</glyph>
<glyph name="o" format="2">
  <advance width="530"/>
  <unicode hex="006F"/>
  <outline>
    <contour>
      <point x="262" y="0" type="curve" smooth="yes"/>
      <point x="390" y="0"/>
      <point x="480" y="111"/>
      <point x="480" y="268" type="curve" smooth="yes"/>
      <point x="480" y="414"/>
      <point x="405" y="505"/>
      <point x="286" y="505" type="curve" smooth="yes"/>
      <point x="147" y="505"/>
      <point x="50" y="393"/>
      <point x="50" y="233" type="curve" smooth="yes"/>
      <point x="50" y="84"/>
      <point x="126" y="0"/>
    </contour>
    <contour>
      <point x="274" y="50" type="curve" smooth="yes"/>
      <point x="186" y="50"/>
      <point x="140" y="122"/>
      <point x="140" y="268" type="curve" smooth="yes"/>
      <point x="140" y="408"/>
      <point x="168" y="455"/>
      <point x="257" y="455" type="curve" smooth="yes"/>
      <point x="350" y="455"/>
      <point x="390" y="381"/>
      <point x="390" y="233" type="curve" smooth="yes"/>
      <point x="390" y="98"/>
      <point x="363" y="50"/>
    </contour>
  </outline>
</glyph>
<glyph name="p" format="2">
  <advance width="600"/>
  <unicode hex="0070"/>
  <outline>
    <contour>
      <point x="290" y="0" type="curve" smooth="yes"/>
      <point x="440" y="0"/>
      <point x="523" y="124"/>
      <point x="523" y="260" type="curve" smooth="yes"/>
      <point x="523" y="380"/>
      <point x="462" y="506"/>
      <point x="330" y="506" type="curve" smooth="yes"/>
      <point x="282" y="506"/>
      <point x="234" y="487"/>
      <point x="190" y="461" type="curve"/>
      <point x="190" y="434" type="line"/>
      <point x="215" y="441"/>
      <point x="282" y="463"/>
      <point x="316" y="463" type="curve" smooth="yes"/>
      <point x="417" y="463"/>
      <point x="428" y="411"/>
      <point x="428" y="241" type="curve" smooth="yes"/>
      <point x="428" y="113"/>
      <point x="398" y="54"/>
      <point x="302" y="54" type="curve" smooth="yes"/>
      <point x="235" y="54"/>
      <point x="205" y="93"/>
      <point x="190" y="118" type="curve"/>
      <point x="114" y="78" type="line"/>
      <point x="149" y="42"/>
      <point x="235" y="0"/>
    </contour>
    <component base="_part.serif_base" xOffset="-86" yOffset="-250"/>
    <component base="_part.serif_base" xScale="-1" xOffset="388" yOffset="-250"/>
    <contour>
      <point x="109" y="-250" type="line"/>
      <point x="194" y="-250" type="line"/>
      <point x="193" y="512" type="line"/>
      <point x="109" y="495" type="line"/>
    </contour>
    <contour>
      <point x="193" y="442" type="line"/>
      <point x="194" y="512" type="line"/>
      <point x="150" y="507"/>
      <point x="105" y="497"/>
      <point x="50" y="483" type="curve"/>
      <point x="50" y="455" type="line"/>
    </contour>
  </outline>
</glyph>
<glyph name="q" format="2">
  <advance width="563"/>
  <unicode hex="0071"/>
  <outline>
    <contour>
      <point x="267" y="-1" type="curve" smooth="yes"/>
      <point x="322" y="-1"/>
      <point x="408" y="41"/>
      <point x="443" y="77" type="curve"/>
      <point x="367" y="117" type="line"/>
      <point x="352" y="92"/>
      <point x="322" y="53"/>
      <point x="255" y="53" type="curve" smooth="yes"/>
      <point x="159" y="53"/>
      <point x="129" y="103"/>
      <point x="129" y="220" type="curve" smooth="yes"/>
      <point x="129" y="423"/>
      <point x="155" y="463"/>
      <point x="251" y="463" type="curve" smooth="yes"/>
      <point x="291" y="463"/>
      <point x="328" y="451"/>
      <point x="367" y="434" type="curve"/>
      <point x="448" y="475" type="line"/>
      <point x="392" y="495"/>
      <point x="353" y="506"/>
      <point x="267" y="506" type="curve" smooth="yes"/>
      <point x="108" y="506"/>
      <point x="34" y="383"/>
      <point x="34" y="239" type="curve" smooth="yes"/>
      <point x="34" y="110"/>
      <point x="117" y="-1"/>
    </contour>
    <component base="_part.serif_base" xOffset="178" yOffset="-250"/>
    <component base="_part.serif_base" xScale="-1" xOffset="633" yOffset="-250"/>
    <contour>
      <point x="363" y="-250" type="line"/>
      <point x="448" y="-250" type="line"/>
      <point x="448" y="475" type="line"/>
      <point x="367" y="434" type="line"/>
    </contour>
  </outline>
</glyph>
<glyph name="s" format="2">
  <advance width="381"/>
  <unicode hex="0073"/>
  <outline>
    <contour>
      <point x="192" y="-9" type="curve"/>
      <point x="293" y="-3"/>
      <point x="350" y="47"/>
      <point x="351" y="130" type="curve"/>
      <point x="354" y="200"/>
      <point x="317" y="234"/>
      <point x="262" y="264" type="curve"/>
      <point x="158" y="319" type="line"/>
      <point x="119" y="339"/>
      <point x="107" y="366"/>
      <point x="105" y="396" type="curve"/>
      <point x="101" y="440"/>
      <point x="130" y="465"/>
      <point x="176" y="468" type="curve"/>
      <point x="252" y="469"/>
      <point x="274" y="425"/>
      <point x="300" y="348" type="curve"/>
      <point x="324" y="348" type="line"/>
      <point x="323" y="497" type="line"/>
      <point x="285" y="477" type="line"/>
      <point x="253" y="490"/>
      <point x="235" y="504"/>
      <point x="177" y="503" type="curve"/>
      <point x="96" y="498"/>
      <point x="37" y="448"/>
      <point x="35" y="377" type="curve"/>
      <point x="29" y="300"/>
      <point x="73" y="264"/>
      <point x="123" y="240" type="curve"/>
      <point x="222" y="187" type="line"/>
      <point x="261" y="165"/>
      <point x="269" y="148"/>
      <point x="274" y="113" type="curve"/>
      <point x="277" y="64"/>
      <point x="246" y="26"/>
      <point x="190" y="27" type="curve"/>
      <point x="137" y="28"/>
      <point x="89" y="59"/>
      <point x="71" y="114" type="curve"/>
      <point x="56" y="164" type="line"/>
      <point x="33" y="164" type="line"/>
      <point x="30" y="0" type="line"/>
      <point x="40" y="0" type="line"/>
      <point x="71" y="20" type="line"/>
      <point x="110" y="2"/>
      <point x="141" y="-11"/>
    </contour>
  </outline>
</glyph>
<glyph name="t" format="2">
  <advance width="500"/>
  <unicode hex="0074"/>
  <outline>
    <contour>
      <point x="277" y="0" type="curve" smooth="yes"/>
      <point x="361" y="0"/>
      <point x="403" y="36"/>
      <point x="447" y="85" type="curve"/>
      <point x="425" y="115" type="line"/>
      <point x="385" y="77"/>
      <point x="347" y="65"/>
      <point x="313" y="65" type="curve" smooth="yes"/>
      <point x="268" y="65"/>
      <point x="249" y="88"/>
      <point x="249" y="145" type="curve" smooth="yes"/>
      <point x="249" y="333" type="line"/>
      <point x="164" y="333" type="line"/>
      <point x="164" y="145" type="line" smooth="yes"/>
      <point x="164" y="57"/>
      <point x="204" y="0"/>
    </contour>
    <contour>
      <point x="164" y="146" type="line"/>
      <point x="249" y="146" type="line"/>
      <point x="249" y="618" type="line"/>
      <point x="229" y="618" type="line"/>
      <point x="89" y="479" type="line"/>
      <point x="164" y="483" type="line"/>
    </contour>
    <contour>
      <point x="89" y="459" type="line"/>
      <point x="421" y="460" type="line"/>
      <point x="421" y="500" type="line"/>
      <point x="226" y="499" type="line"/>
      <point x="89" y="479" type="line"/>
    </contour>
  </outline>
</glyph>
<glyph name="u" format="2">
  <advance width="657"/>
  <unicode hex="0075"/>
  <outline>
    <contour>
      <point x="433" y="0" type="line"/>
      <point x="518" y="0" type="line"/>
      <point x="518" y="505" type="line"/>
      <point x="433" y="505" type="line"/>
    </contour>
    <component base="_part.n" xScale="-1" yScale="-0.921" xOffset="518" yOffset="474.3094"/>
    <component base="_part.serif_base" xScale="-1" xOffset="703"/>
    <component base="_part.serif_top" xOffset="-66"/>
  </outline>
</glyph>
<glyph name="v" format="2">
  <advance width="520"/>
  <unicode hex="0076"/>
  <outline>
    <contour>
      <point x="220" y="0" type="line"/>
      <point x="301" y="0" type="line"/>
      <point x="467" y="500" type="line"/>
      <point x="415" y="500" type="line"/>
      <point x="278" y="60" type="line"/>
      <point x="141" y="500" type="line"/>
      <point x="54" y="500" type="line"/>
    </contour>
    <component base="_part.serif_base" yScale="-1" xOffset="-105" yOffset="500"/>
    <component base="_part.serif_base" xScale="-1" yScale="-1" xOffset="335" yOffset="500"/>
    <component base="_part.serif_base" yScale="-1" xOffset="220" yOffset="500"/>
    <component base="_part.serif_base" xScale="-1" yScale="-1" xOffset="625" yOffset="500"/>
  </outline>
</glyph>
<glyph name="w" format="2">
  <advance width="826"/>
  <unicode hex="0077"/>
  <guideline x="759" y="514" angle="0"/>
  <guideline x="321" y="461" angle="0"/>
  <guideline x="599" y="101" angle="0"/>
  <guideline x="387" y="33" angle="0"/>
  <outline>
    <contour>
      <point x="557" y="2" type="line"/>
      <point x="635" y="35" type="line"/>
      <point x="751" y="461" type="line"/>
      <point x="751" y="514" type="line"/>
      <point x="697" y="514" type="line"/>
      <point x="697" y="460" type="line"/>
      <point x="606" y="107" type="line"/>
      <point x="475" y="461" type="line"/>
      <point x="475" y="514" type="line"/>
      <point x="384" y="514" type="line"/>
      <point x="384" y="461" type="line"/>
    </contour>
    <contour>
      <point x="247" y="3" type="line"/>
      <point x="326" y="37" type="line"/>
      <point x="433" y="448" type="line"/>
      <point x="384" y="462" type="line"/>
      <point x="296" y="110" type="line"/>
      <point x="166" y="461" type="line"/>
      <point x="166" y="514" type="line"/>
      <point x="75" y="514" type="line"/>
      <point x="75" y="461" type="line"/>
    </contour>
    <component base="_part.serif_base" yScale="-1" xOffset="-110" yOffset="514"/>
    <component base="_part.serif_base" xScale="-1" yScale="-1" xOffset="351" yOffset="514"/>
    <component base="_part.serif_base" yScale="-1" xOffset="199" yOffset="514"/>
    <component base="_part.serif_base" xScale="-1" yScale="-1" xOffset="660" yOffset="514"/>
    <component base="_part.serif_base" yScale="-1" xOffset="511" yOffset="514"/>
    <component base="_part.serif_base" xScale="-1" yScale="-1" xOffset="936" yOffset="514"/>
  </outline>
</glyph>
<glyph name="x" format="2">
  <advance width="551.4105"/>
  <unicode hex="0078"/>
  <guideline x="496" y="515" angle="0"/>
  <guideline x="545" y="1" angle="0"/>
  <outline>
    <contour>
      <point x="373.20526" y="1" type="line"/>
      <point x="450.20526" y="1" type="line"/>
      <point x="450.20526" y="39" type="line"/>
      <point x="206.20525" y="477" type="line"/>
      <point x="206.20525" y="515" type="line"/>
      <point x="108.20525" y="515" type="line"/>
      <point x="109.20525" y="477" type="line"/>
    </contour>
    <component base="_part.serif_base" xScale="0.7163" yScale="0.7133" xOffset="-28.7947" yOffset="1"/>
    <component base="_part.serif_base" xScale="-0.7163" yScale="0.7163" xOffset="291.2053"/>
    <component base="_part.serif_base" xScale="-0.7163" yScale="0.7163" xOffset="580.2053" yOffset="1"/>
    <contour>
      <point x="101.20525" y="1" type="line"/>
      <point x="159.20525" y="1" type="line"/>
      <point x="159.20525" y="38" type="line"/>
      <point x="418.20526" y="477" type="line"/>
      <point x="418.20526" y="515" type="line"/>
      <point x="382.20526" y="515" type="line"/>
      <point x="101.20525" y="38" type="line"/>
    </contour>
    <component base="_part.serif_base" xScale="0.7163" yScale="-0.7163" xOffset="-20.7947" yOffset="515"/>
    <component base="_part.serif_base" xScale="-0.7163" yScale="-0.7163" xOffset="336.2053" yOffset="515"/>
    <component base="_part.serif_base" xScale="-0.7163" yScale="-0.7163" xOffset="548.2053" yOffset="515"/>
  </outline>
</glyph>
<glyph name="z" format="2">
  <advance width="473"/>
  <unicode hex="007A"/>
  <outline>
    <contour>
      <point x="433" y="-1" type="line"/>
      <point x="433" y="54" type="line"/>
      <point x="140" y="54" type="line"/>
      <point x="430" y="471" type="line"/>
      <point x="415" y="500" type="line"/>
      <point x="44" y="500" type="line"/>
      <point x="44" y="451" type="line"/>
      <point x="322" y="448" type="line"/>
      <point x="315" y="464" type="line"/>
      <point x="40" y="42" type="line"/>
      <point x="52" y="2" type="line"/>
    </contour>
    <contour>
      <point x="44" y="309" type="line"/>
      <point x="75" y="309" type="line"/>
      <point x="123" y="451" type="line"/>
      <point x="44" y="451" type="line"/>
    </contour>
    <contour>
      <point x="354" y="54" type="line"/>
      <point x="433" y="54" type="line"/>
      <point x="433" y="196" type="line"/>
      <point x="402" y="196" type="line"/>
    </contour>
  </outline>
</glyph>
<glyph name="dotlessi" format="2">
  <advance width="335"/>
  <unicode hex="0131"/>
  <anchor x="168" y="500" name="top"/>
  <anchor x="168" y="0" name="bottom"/>
  <anchor x="285" y="0" name="ogonek"/>
  <outline>
    <contour>
      <point x="125" y="0" type="line"/>
      <point x="210" y="0" type="line"/>
      <point x="210" y="450" type="line"/>
      <point x="125" y="450" type="line"/>
    </contour>
    <component base="_part.serif_base" xOffset="-60"/>
    <component base="_part.serif_base" xScale="-1" xOffset="395"/>
    <component base="_part.serif_top" xOffset="-60"/>
  </outline>
</glyph>
<glyph name="jdotless" format="2">
  <advance width="300"/>
  <unicode hex="0237"/>
  <anchor x="140" y="500" name="top"/>
  <anchor x="150" y="-250" name="bottom"/>
  <outline>
    <contour>
      <point x="43" y="-250" type="line"/>
      <point x="129" y="-210"/>
      <point x="185" y="-153"/>
      <point x="185" y="-53" type="curve" smooth="yes"/>
      <point x="185" y="54" type="line"/>
      <point x="100" y="54" type="line"/>
      <point x="100" y="-32" type="line" smooth="yes"/>
      <point x="100" y="-138"/>
      <point x="72" y="-173"/>
      <point x="27" y="-223" type="curve"/>
    </contour>
    <contour>
      <point x="100" y="54" type="line"/>
      <point x="185" y="54" type="line"/>
      <point x="185" y="496" type="line"/>
      <point x="100" y="496" type="line"/>
    </contour>
    <contour>
      <point x="185" y="435" type="line"/>
      <point x="185" y="510" type="line"/>
      <point x="139" y="505"/>
      <point x="81" y="494"/>
      <point x="25" y="480" type="curve"/>
      <point x="25" y="450" type="line"/>
    </contour>
  </outline>
</glyph>
<glyph name="acutecomb" format="2">
  <advance width="189"/>
  <unicode hex="0301"/>
  <outline>
    <contour>
      <point x="31" y="574" type="line"/>
      <point x="100" y="580"/>
      <point x="153" y="620"/>
      <point x="174" y="680" type="curve"/>
      <point x="112" y="700" type="line"/>
      <point x="98" y="651"/>
      <point x="76" y="646"/>
      <point x="15" y="604" type="curve"/>
    </contour>
  </outline>
</glyph>
<glyph name="tildecomb" format="2">
  <advance width="365"/>
  <unicode hex="0303"/>
  <note>
tilde
</note>
  <outline>
    <contour>
      <point x="251" y="543" type="curve" smooth="yes"/>
      <point x="328" y="545"/>
      <point x="337" y="580"/>
      <point x="337" y="643" type="curve" smooth="yes"/>
      <point x="337" y="649"/>
      <point x="337" y="655"/>
      <point x="336" y="659" type="curve"/>
      <point x="277" y="659" type="line"/>
      <point x="277" y="608"/>
      <point x="272" y="604"/>
      <point x="239" y="604" type="curve" smooth="yes"/>
      <point x="204" y="604"/>
      <point x="173" y="659"/>
      <point x="114" y="659" type="curve" smooth="yes"/>
      <point x="67" y="659"/>
      <point x="28" y="621"/>
      <point x="28" y="562" type="curve" smooth="yes"/>
      <point x="28" y="556"/>
      <point x="28" y="550"/>
      <point x="29" y="546" type="curve"/>
      <point x="88" y="546" type="line"/>
      <point x="88" y="588"/>
      <point x="91" y="596"/>
      <point x="130" y="596" type="curve" smooth="yes"/>
      <point x="165" y="596"/>
      <point x="192" y="541"/>
    </contour>
  </outline>
</glyph>
<glyph name="quoteleft" format="2">
  <advance width="129"/>
  <unicode hex="2018"/>
  <outline>
    <contour>
      <point x="79" y="509" type="curve"/>
      <point x="114" y="524" type="line"/>
      <point x="87" y="605"/>
      <point x="82" y="626"/>
      <point x="104" y="680" type="curve"/>
      <point x="24" y="705" type="line"/>
      <point x="1" y="636"/>
      <point x="21" y="563"/>
    </contour>
  </outline>
</glyph>
<glyph name="guilsinglleft" format="2">
  <advance width="297"/>
  <unicode hex="2039"/>
  <outline>
    <contour>
      <point x="182" y="45" type="line"/>
      <point x="267" y="45" type="line"/>
      <point x="115" y="237" type="line"/>
      <point x="115" y="269" type="line"/>
      <point x="267" y="465" type="line"/>
      <point x="182" y="465" type="line"/>
      <point x="30" y="264" type="line"/>
      <point x="30" y="241" type="line"/>
    </contour>
  </outline>
</glyph>
<glyph name="J.cv01" format="2">
  <advance width="371"/>
  <outline>
    <contour>
      <point x="41" y="-130" type="line"/>
      <point x="147" y="-97"/>
      <point x="223" y="-23"/>
      <point x="223" y="87" type="curve" smooth="yes"/>
      <point x="223" y="194" type="line"/>
      <point x="133" y="194" type="line"/>
      <point x="133" y="108" type="line" smooth="yes"/>
      <point x="133" y="-9"/>
      <point x="90" y="-59"/>
      <point x="25" y="-103" type="curve"/>
    </contour>
    <contour>
      <point x="133" y="194" type="line"/>
      <point x="223" y="194" type="line"/>
      <point x="225" y="700" type="line"/>
      <point x="135" y="700" type="line"/>
    </contour>
    <component base="_part.serif_base" yScale="-1" xOffset="-50" yOffset="700"/>
    <component base="_part.serif_base" xScale="-1" yScale="-1" xOffset="410" yOffset="700"/>
  </outline>
</glyph>
<glyph name="_part.fuste" format="2">
  <advance width="600"/>
  <outline>
    <contour>
      <point x="125" y="0" type="line"/>
      <point x="210" y="0" type="line"/>
      <point x="210" y="700" type="line"/>
      <point x="125" y="700" type="line"/>
    </contour>
  </outline>
</glyph>
<glyph name="_part.fuste2" format="2">
  <advance width="700"/>
  <guideline x="334" y="712" angle="0" name="a" identifier="a"/>
  <guideline x="335" y="658" angle="0" name="a"/>
  <guideline x="336" y="679" angle="0" name="a"/>
  <guideline x="304" y="384" angle="0" name="a"/>
  <guideline x="358" y="459" angle="0" name="a"/>
  <guideline x="358" y="330" angle="0" name="a"/>
  <guideline x="362" y="252" angle="0" name="a"/>
  <guideline x="308" y="42" angle="0" name="a"/>
  <guideline x="380" y="165" angle="0" name="a"/>
  <guideline x="451" y="-12" angle="0" name="a"/>
  <guideline x="90" y="140" angle="90" name="b" identifier="b"/>
  <guideline x="174" y="129" angle="90" name="b"/>
  <guideline x="273" y="127" angle="90" name="b"/>
  <guideline x="510" y="130" angle="90" name="b"/>
  <guideline x="588" y="134" angle="90" name="b"/>
  <guideline x="599" y="134" angle="90" name="b"/>
  <guideline x="442" y="218" angle="90" name="b"/>
  <guideline x="538" y="486" angle="90" name="b"/>
  <guideline x="577" y="501" angle="90" name="b"/>
  <guideline x="568" y="505" angle="90" name="b"/>
  <guideline x="561" y="345" angle="90" name="b"/>
  <outline>
    <contour>
      <point x="174" y="-12" type="line"/>
      <point x="265" y="-12" type="line"/>
      <point x="264" y="700" type="line"/>
      <point x="174" y="700" type="line"/>
    </contour>
    <contour>
      <point x="90" y="-12" type="line"/>
      <point x="174" y="-12" type="line"/>
      <point x="174" y="42" type="line"/>
      <point x="155" y="40"/>
      <point x="110" y="29"/>
      <point x="90" y="21" type="curve"/>
    </contour>
    <contour>
      <point x="174" y="-12" type="move"/>
    </contour>
    <contour>
      <point x="174" y="646" type="curve"/>
      <point x="174" y="700" type="line"/>
      <point x="90" y="700" type="line"/>
      <point x="90" y="667" type="line"/>
      <point x="110" y="659"/>
      <point x="155" y="648"/>
    </contour>
  </outline>
</glyph>
<glyph name="_part.inferior" format="2">
  <advance width="700"/>
  <guideline x="334" y="712" angle="0" name="a" identifier="a"/>
  <guideline x="335" y="658" angle="0" name="a"/>
  <guideline x="336" y="679" angle="0" name="a"/>
  <guideline x="304" y="384" angle="0" name="a"/>
  <guideline x="358" y="459" angle="0" name="a"/>
  <guideline x="358" y="330" angle="0" name="a"/>
  <guideline x="362" y="252" angle="0" name="a"/>
  <guideline x="308" y="42" angle="0" name="a"/>
  <guideline x="380" y="165" angle="0" name="a"/>
  <guideline x="451" y="-12" angle="0" name="a"/>
  <guideline x="90" y="140" angle="90" name="b" identifier="b"/>
  <guideline x="174" y="129" angle="90" name="b"/>
  <guideline x="273" y="127" angle="90" name="b"/>
  <guideline x="510" y="130" angle="90" name="b"/>
  <guideline x="588" y="134" angle="90" name="b"/>
  <guideline x="599" y="134" angle="90" name="b"/>
  <guideline x="442" y="218" angle="90" name="b"/>
  <guideline x="538" y="486" angle="90" name="b"/>
  <guideline x="577" y="501" angle="90" name="b"/>
  <guideline x="568" y="505" angle="90" name="b"/>
  <guideline x="561" y="345" angle="90" name="b"/>
  <outline>
    <contour>
      <point x="273" y="-12" type="line"/>
      <point x="599" y="-12" type="line"/>
      <point x="599" y="42" type="line"/>
      <point x="273" y="42" type="line"/>
    </contour>
    <contour>
      <point x="510" y="42" type="line"/>
      <point x="599" y="42" type="line"/>
      <point x="600" y="83"/>
      <point x="597" y="128"/>
      <point x="588" y="165" type="curve"/>
      <point x="561" y="165" type="line"/>
    </contour>
  </outline>
</glyph>
<glyph name="_part.medio" format="2">
  <advance width="700"/>
  <guideline x="334" y="712" angle="0" name="a" identifier="a"/>
  <guideline x="335" y="658" angle="0" name="a"/>
  <guideline x="336" y="679" angle="0" name="a"/>
  <guideline x="304" y="384" angle="0" name="a"/>
  <guideline x="358" y="459" angle="0" name="a"/>
  <guideline x="358" y="330" angle="0" name="a"/>
  <guideline x="362" y="252" angle="0" name="a"/>
  <guideline x="308" y="42" angle="0" name="a"/>
  <guideline x="380" y="165" angle="0" name="a"/>
  <guideline x="451" y="-12" angle="0" name="a"/>
  <guideline x="90" y="140" angle="90" name="b" identifier="b"/>
  <guideline x="174" y="129" angle="90" name="b"/>
  <guideline x="273" y="127" angle="90" name="b"/>
  <guideline x="510" y="130" angle="90" name="b"/>
  <guideline x="588" y="134" angle="90" name="b"/>
  <guideline x="599" y="134" angle="90" name="b"/>
  <guideline x="442" y="218" angle="90" name="b"/>
  <guideline x="538" y="486" angle="90" name="b"/>
  <guideline x="577" y="501" angle="90" name="b"/>
  <guideline x="568" y="505" angle="90" name="b"/>
  <guideline x="561" y="345" angle="90" name="b"/>
  <outline>
    <contour>
      <point x="273" y="330" type="line"/>
      <point x="510" y="330" type="line"/>
      <point x="510" y="384" type="line"/>
      <point x="273" y="384" type="line"/>
    </contour>
    <contour>
      <point x="483" y="252" type="line"/>
      <point x="510" y="252" type="line"/>
      <point x="510" y="330" type="line"/>
      <point x="442" y="330" type="line"/>
    </contour>
    <contour>
      <point x="442" y="384" type="line"/>
      <point x="510" y="384" type="line"/>
      <point x="510" y="459" type="line"/>
      <point x="483" y="459" type="line"/>
    </contour>
  </outline>
</glyph>
<glyph name="_part.n" format="2">
  <advance width="499"/>
  <outline>
    <contour>
      <point x="314" y="0" type="line"/>
      <point x="399" y="0" type="line"/>
      <point x="399" y="370" type="line" smooth="yes"/>
      <point x="399" y="458"/>
      <point x="352" y="515"/>
      <point x="266" y="515" type="curve" smooth="yes"/>
      <point x="187" y="515"/>
      <point x="117" y="460"/>
      <point x="75" y="400" type="curve"/>
      <point x="75" y="356" type="line"/>
      <point x="125" y="407"/>
      <point x="194" y="440"/>
      <point x="250" y="440" type="curve" smooth="yes"/>
      <point x="295" y="440"/>
      <point x="314" y="420"/>
      <point x="314" y="370" type="curve" smooth="yes"/>
    </contour>
  </outline>
</glyph>
<glyph name="_part.serif_base" format="2">
  <advance width="305"/>
  <outline>
    <contour>
      <point x="110" y="0" type="line"/>
      <point x="195" y="0" type="line"/>
      <point x="195" y="55" type="line"/>
      <point x="169" y="50"/>
      <point x="138" y="40"/>
      <point x="110" y="30" type="curve"/>
    </contour>
  </outline>
</glyph>
<glyph name="_part.serif_top" format="2">
  <advance width="390"/>
  <outline>
    <contour>
      <point x="270" y="435" type="line"/>
      <point x="270" y="510" type="line"/>
      <point x="222" y="503"/>
      <point x="176" y="494"/>
      <point x="120" y="480" type="curve"/>
      <point x="120" y="450" type="line"/>
    </contour>
  </outline>
</glyph>
<glyph name="_part.serifalt.sup.2" format="2">
  <advance width="600"/>
  <outline>
    <contour>
      <point x="377" y="374" type="curve"/>
      <point x="397" y="374" type="line"/>
      <point x="403" y="398"/>
      <point x="419" y="409"/>
      <point x="425" y="441" type="curve"/>
      <point x="402" y="484" type="line"/>
      <point x="383" y="480"/>
      <point x="352" y="478"/>
      <point x="352" y="459" type="curve" smooth="yes"/>
      <point x="352" y="432"/>
      <point x="369" y="400"/>
    </contour>
  </outline>
</glyph>
<glyph name="_part.serifalt.sup" format="2">
  <advance width="600"/>
  <outline>
    <contour>
      <point x="377" y="392" type="line"/>
      <point x="397" y="392" type="line"/>
      <point x="410" y="415"/>
      <point x="411" y="440"/>
      <point x="411" y="469" type="curve"/>
      <point x="410" y="470"/>
      <point x="409" y="471"/>
      <point x="408" y="472" type="curve"/>
      <point x="343" y="458" type="line"/>
    </contour>
  </outline>
</glyph>
<glyph name="_part.superior" format="2">
  <advance width="700"/>
  <guideline x="334" y="712" angle="0" name="a" identifier="a"/>
  <guideline x="335" y="658" angle="0" name="a"/>
  <guideline x="336" y="679" angle="0" name="a"/>
  <guideline x="304" y="384" angle="0" name="a"/>
  <guideline x="358" y="459" angle="0" name="a"/>
  <guideline x="358" y="330" angle="0" name="a"/>
  <guideline x="362" y="252" angle="0" name="a"/>
  <guideline x="308" y="42" angle="0" name="a"/>
  <guideline x="380" y="165" angle="0" name="a"/>
  <guideline x="451" y="-12" angle="0" name="a"/>
  <guideline x="90" y="140" angle="90" name="b" identifier="b"/>
  <guideline x="174" y="129" angle="90" name="b"/>
  <guideline x="273" y="127" angle="90" name="b"/>
  <guideline x="510" y="130" angle="90" name="b"/>
  <guideline x="588" y="134" angle="90" name="b"/>
  <guideline x="599" y="134" angle="90" name="b"/>
  <guideline x="442" y="218" angle="90" name="b"/>
  <guideline x="538" y="486" angle="90" name="b"/>
  <guideline x="577" y="501" angle="90" name="b"/>
  <guideline x="568" y="505" angle="90" name="b"/>
  <guideline x="561" y="345" angle="90" name="b"/>
  <outline>
    <contour>
      <point x="174" y="658" type="line"/>
      <point x="578" y="658" type="line"/>
      <point x="581" y="712" type="line"/>
      <point x="174" y="712" type="line"/>
    </contour>
    <contour>
      <point x="540" y="546" type="line"/>
      <point x="571" y="546" type="line"/>
      <point x="578" y="658" type="line"/>
      <point x="499" y="658" type="line"/>
    </contour>
  </outline>
</glyph>
<glyph name="c.cv01" format="2">
  <advance width="506"/>
  <outline>
    <contour>
      <point x="271" y="-9" type="curve" smooth="yes"/>
      <point x="335" y="-9"/>
      <point x="397" y="27"/>
      <point x="443" y="70" type="curve"/>
      <point x="424" y="99" type="line"/>
      <point x="390" y="73"/>
      <point x="354" y="56"/>
      <point x="299" y="56" type="curve" smooth="yes"/>
      <point x="207" y="56"/>
      <point x="153" y="128"/>
      <point x="153" y="265" type="curve" smooth="yes"/>
      <point x="153" y="421"/>
      <point x="194" y="463"/>
      <point x="260" y="463" type="curve" smooth="yes"/>
      <point x="333" y="463"/>
      <point x="380" y="427"/>
      <point x="391" y="342" type="curve"/>
      <point x="427" y="342" type="line"/>
      <point x="430" y="474" type="line"/>
      <point x="386" y="498"/>
      <point x="339" y="510"/>
      <point x="283" y="510" type="curve" smooth="yes"/>
      <point x="147" y="509"/>
      <point x="63" y="409"/>
      <point x="63" y="226" type="curve" smooth="yes"/>
      <point x="63" y="100"/>
      <point x="127" y="-9"/>
    </contour>
  </outline>
</glyph>
<glyph name="c.cv02" format="2">
  <advance width="490"/>
  <outline>
    <contour>
      <point x="0" y="0"/>
      <point x="0" y="0"/>
    </contour>
    <component base="c" xOffset="-8"/>
    <component base="_part.serifalt.sup" xOffset="-8"/>
  </outline>
</glyph>
<glyph name="f.cv01" format="2">
  <advance width="452"/>
  <outline>
    <contour>
      <point x="92" y="486" type="curve"/>
      <point x="177" y="486" type="line"/>
      <point x="162" y="635"/>
      <point x="180" y="713"/>
      <point x="274" y="713" type="curve" smooth="yes"/>
      <point x="325" y="713"/>
      <point x="355" y="694"/>
      <point x="365" y="632" type="curve"/>
      <point x="401" y="632" type="line"/>
      <point x="401" y="736" type="line"/>
      <point x="361" y="760"/>
      <point x="338" y="760"/>
      <point x="297" y="760" type="curve" smooth="yes"/>
      <point x="167" y="759"/>
      <point x="62" y="679"/>
    </contour>
    <contour>
      <point x="92" y="1" type="line"/>
      <point x="177" y="1" type="line"/>
      <point x="177" y="460" type="line"/>
      <point x="92" y="460" type="line"/>
    </contour>
    <contour>
      <point x="22" y="460" type="line"/>
      <point x="324" y="460" type="line"/>
      <point x="324" y="500" type="line"/>
      <point x="22" y="500" type="line"/>
    </contour>
  </outline>
</glyph>
<glyph name="j.cv01" format="2">
  <advance width="301"/>
  <outline>
    <contour>
      <point x="43" y="-250" type="line"/>
      <point x="129" y="-210"/>
      <point x="185" y="-153"/>
      <point x="185" y="-53" type="curve" smooth="yes"/>
      <point x="185" y="54" type="line"/>
      <point x="100" y="54" type="line"/>
      <point x="100" y="-32" type="line" smooth="yes"/>
      <point x="100" y="-138"/>
      <point x="72" y="-173"/>
      <point x="27" y="-223" type="curve"/>
    </contour>
    <contour>
      <point x="43" y="-250" type="line"/>
      <point x="103" y="-154" type="line"/>
      <point x="50" y="-162"/>
      <point x="-66" y="-170"/>
      <point x="-55" y="-177" type="curve"/>
      <point x="-52" y="-203" type="line"/>
    </contour>
    <contour>
      <point x="100" y="54" type="line"/>
      <point x="185" y="54" type="line"/>
      <point x="185" y="496" type="line"/>
      <point x="100" y="496" type="line"/>
    </contour>
    <contour>
      <point x="185" y="435" type="line"/>
      <point x="185" y="510" type="line"/>
      <point x="139" y="505"/>
      <point x="81" y="494"/>
      <point x="25" y="480" type="curve"/>
      <point x="25" y="450" type="line"/>
    </contour>
    <contour>
      <point x="141" y="620" type="curve" smooth="yes"/>
      <point x="174" y="620"/>
      <point x="201" y="647"/>
      <point x="201" y="680" type="curve" smooth="yes"/>
      <point x="201" y="713"/>
      <point x="174" y="740"/>
      <point x="141" y="740" type="curve" smooth="yes"/>
      <point x="108" y="740"/>
      <point x="81" y="713"/>
      <point x="81" y="680" type="curve" smooth="yes"/>
      <point x="81" y="647"/>
      <point x="108" y="620"/>
    </contour>
  </outline>
</glyph>
<glyph name="l.cv01" format="2">
  <advance width="325"/>
  <outline>
    <contour>
      <point x="115" y="0" type="line"/>
      <point x="200" y="0" type="line"/>
      <point x="200" y="700" type="line"/>
      <point x="115" y="700" type="line"/>
    </contour>
    <component base="_part.serif_top" xOffset="-70" yOffset="250"/>
  </outline>
</glyph>
<glyph name="l.cv02" format="2">
  <advance width="335"/>
  <outline>
    <contour>
      <point x="125" y="0" type="line"/>
      <point x="210" y="0" type="line"/>
      <point x="210" y="700" type="line"/>
      <point x="125" y="700" type="line"/>
    </contour>
    <component base="_part.serif_base" xScale="-1" xOffset="395"/>
    <component base="_part.serif_top" xOffset="-60" yOffset="250"/>
  </outline>
</glyph>
<glyph name="p_a_n_a_u_n_a_r_t_e" format="2">
  <advance width="913"/>
  <outline>
    <contour>
      <point x="534" y="-171" type="line"/>
      <point x="741" y="-113" type="line"/>
      <point x="703" y="-18"/>
      <point x="627" y="140"/>
      <point x="596" y="239" type="curve"/>
      <point x="873" y="281" type="line"/>
      <point x="841" y="459" type="line"/>
      <point x="779" y="440"/>
      <point x="668" y="392"/>
      <point x="574" y="392" type="curve"/>
      <point x="563" y="471" type="line"/>
      <point x="441" y="477" type="line"/>
      <point x="423" y="408" type="line"/>
      <point x="295" y="428"/>
      <point x="205" y="538"/>
      <point x="137" y="596" type="curve"/>
      <point x="75" y="422" type="line"/>
      <point x="136" y="366"/>
      <point x="224" y="304"/>
      <point x="344" y="264" type="curve"/>
      <point x="255" y="214"/>
      <point x="120" y="66"/>
      <point x="83" y="8" type="curve"/>
      <point x="211" y="-148" type="line"/>
      <point x="252" y="-61"/>
      <point x="342" y="66"/>
      <point x="456" y="124" type="curve"/>
    </contour>
    <contour>
      <point x="96" y="-8" type="line"/>
      <point x="139" y="27" type="line"/>
      <point x="116" y="50"/>
      <point x="99" y="64"/>
      <point x="66" y="78" type="curve"/>
      <point x="40" y="58" type="line"/>
    </contour>
    <contour>
      <point x="725" y="-118" type="line"/>
      <point x="807" y="-94" type="line"/>
      <point x="799" y="-65" type="line"/>
      <point x="764" y="-58"/>
      <point x="743" y="-58"/>
      <point x="710" y="-65" type="curve"/>
    </contour>
    <contour>
      <point x="218" y="440" type="curve"/>
      <point x="268" y="476" type="line"/>
      <point x="244" y="513"/>
      <point x="232" y="553"/>
      <point x="213" y="592" type="curve"/>
      <point x="189" y="583" type="line"/>
      <point x="194" y="534"/>
      <point x="207" y="479"/>
    </contour>
    <contour>
      <point x="516" y="571" type="curve" smooth="yes"/>
      <point x="473" y="568"/>
      <point x="430" y="576"/>
      <point x="410" y="596" type="curve"/>
      <point x="409" y="613" type="line"/>
      <point x="434" y="599"/>
      <point x="473" y="591"/>
      <point x="514" y="596" type="curve" smooth="yes"/>
      <point x="556" y="599"/>
      <point x="596" y="617"/>
      <point x="619" y="637" type="curve"/>
      <point x="620" y="617" type="line"/>
      <point x="604" y="595"/>
      <point x="561" y="575"/>
    </contour>
    <contour>
      <point x="724" y="345" type="line"/>
      <point x="739" y="387"/>
      <point x="763" y="421"/>
      <point x="782" y="460" type="curve"/>
      <point x="760" y="473" type="line"/>
      <point x="724" y="439"/>
      <point x="689" y="395"/>
      <point x="665" y="362" type="curve"/>
    </contour>
    <contour>
      <point x="461" y="674" type="curve" smooth="yes"/>
      <point x="442" y="672"/>
      <point x="436" y="679"/>
      <point x="434" y="695" type="curve" smooth="yes"/>
      <point x="433" y="709"/>
      <point x="439" y="715"/>
      <point x="457" y="716" type="curve" smooth="yes"/>
      <point x="474" y="719"/>
      <point x="481" y="713"/>
      <point x="482" y="698" type="curve" smooth="yes"/>
      <point x="485" y="684"/>
      <point x="475" y="675"/>
    </contour>
    <contour>
      <point x="487" y="465" type="curve" smooth="yes"/>
      <point x="654" y="449"/>
      <point x="722" y="496"/>
      <point x="733" y="628" type="curve" smooth="yes"/>
      <point x="746" y="770"/>
      <point x="688" y="853"/>
      <point x="521" y="858" type="curve" smooth="yes"/>
      <point x="390" y="869"/>
      <point x="293" y="801"/>
      <point x="282" y="671" type="curve" smooth="yes"/>
      <point x="271" y="540"/>
      <point x="331" y="469"/>
    </contour>
    <contour>
      <point x="559" y="673" type="curve" smooth="yes"/>
      <point x="541" y="672"/>
      <point x="532" y="678"/>
      <point x="531" y="694" type="curve" smooth="yes"/>
      <point x="530" y="709"/>
      <point x="537" y="715"/>
      <point x="555" y="716" type="curve" smooth="yes"/>
      <point x="572" y="718"/>
      <point x="578" y="714"/>
      <point x="579" y="698" type="curve" smooth="yes"/>
      <point x="580" y="687"/>
      <point x="573" y="674"/>
    </contour>
  </outline>
</glyph>
<glyph name="serif" format="2">
  <advance width="700"/>
  <outline>
    <contour>
      <point x="90" y="-12" type="line"/>
      <point x="174" y="-12" type="line"/>
      <point x="174" y="42" type="line"/>
      <point x="162" y="41"/>
      <point x="118" y="32"/>
      <point x="90" y="21" type="curve"/>
    </contour>
  </outline>
</glyph>
<glyph name="serifHH" format="2">
  <advance width="285"/>
  <outline>
    <contour>
      <point x="100" y="0" type="line"/>
      <point x="185" y="0" type="line"/>
      <point x="185" y="30" type="line"/>
      <point x="154" y="46"/>
      <point x="134" y="52"/>
      <point x="100" y="55" type="curve"/>
    </contour>
  </outline>
</glyph>
<glyph name="serifinferior" format="2">
  <advance width="500"/>
  <outline>
    <contour>
      <point x="233" y="-9" type="line"/>
      <point x="318" y="-9" type="line"/>
      <point x="318" y="21" type="line"/>
      <point x="287" y="37"/>
      <point x="267" y="43"/>
      <point x="233" y="46" type="curve"/>
    </contour>
  </outline>
</glyph>
<glyph name="u_n_i_l_o_g_o" format="2">
  <advance width="741"/>
  <outline>
    <contour>
      <point x="371" y="-7" type="curve" smooth="yes"/>
      <point x="550" y="-7"/>
      <point x="696" y="139"/>
      <point x="711" y="318" type="curve" smooth="yes"/>
      <point x="711" y="320"/>
      <point x="711" y="320"/>
      <point x="711" y="321" type="curve"/>
      <point x="600" y="320" type="line"/>
      <point x="600" y="318" type="line"/>
      <point x="587" y="199"/>
      <point x="488" y="107"/>
      <point x="371" y="107" type="curve" smooth="yes"/>
      <point x="217" y="107"/>
      <point x="138" y="251"/>
      <point x="138" y="318" type="curve"/>
      <point x="30" y="318" type="line"/>
      <point x="42" y="139"/>
      <point x="190" y="-7"/>
    </contour>
    <contour>
      <point x="373" y="153" type="curve" smooth="yes"/>
      <point x="479" y="153"/>
      <point x="561" y="241"/>
      <point x="561" y="347" type="curve" smooth="yes"/>
      <point x="561" y="455"/>
      <point x="479" y="541"/>
      <point x="373" y="541" type="curve" smooth="yes"/>
      <point x="267" y="541"/>
      <point x="180" y="455"/>
      <point x="180" y="347" type="curve" smooth="yes"/>
      <point x="180" y="241"/>
      <point x="267" y="153"/>
    </contour>
    <contour>
      <point x="373" y="269" type="curve" smooth="yes"/>
      <point x="331" y="269"/>
      <point x="294" y="303"/>
      <point x="294" y="347" type="curve" smooth="yes"/>
      <point x="294" y="391"/>
      <point x="331" y="424"/>
      <point x="373" y="424" type="curve" smooth="yes"/>
      <point x="414" y="424"/>
      <point x="448" y="391"/>
      <point x="448" y="347" type="curve" smooth="yes"/>
      <point x="448" y="303"/>
      <point x="414" y="269"/>
    </contour>
    <contour>
      <point x="30" y="376" type="curve"/>
      <point x="138" y="376" type="line"/>
      <point x="150" y="498"/>
      <point x="249" y="592"/>
      <point x="371" y="592" type="curve" smooth="yes"/>
      <point x="489" y="592"/>
      <point x="588" y="496"/>
      <point x="600" y="376" type="curve"/>
      <point x="711" y="376" type="line"/>
      <point x="695" y="558"/>
      <point x="548" y="700"/>
      <point x="371" y="700" type="curve" smooth="yes"/>
      <point x="152" y="700"/>
      <point x="30" y="500"/>
    </contour>
    <contour>
      <point x="600" y="320" type="move"/>
    </contour>
    <contour>
      <point x="711" y="321" type="move"/>
    </contour>
  </outline>
</glyph>
<glyph name="v.001" format="2">
  <advance width="487"/>
  <outline>
    <contour>
      <point x="220" y="0" type="line"/>
      <point x="301" y="0" type="line"/>
      <point x="482" y="500" type="line"/>
      <point x="402" y="500" type="line"/>
      <point x="273" y="17" type="line"/>
      <point x="291" y="17" type="line"/>
      <point x="141" y="500" type="line"/>
      <point x="54" y="500" type="line"/>
    </contour>
    <component base="_part.serif_base" yScale="-1" xOffset="-105" yOffset="500"/>
  </outline>
</glyph>
<glyph name="v.002" format="2">
  <advance width="470"/>
  <outline>
    <contour>
      <point x="220" y="0" type="line"/>
      <point x="301" y="0" type="line"/>
      <point x="482" y="500" type="line"/>
      <point x="402" y="500" type="line"/>
      <point x="273" y="17" type="line"/>
      <point x="291" y="17" type="line"/>
      <point x="138" y="510" type="line"/>
      <point x="66" y="464" type="line"/>
    </contour>
    <component base="_part.serif_top" xOffset="-132"/>
  </outline>
</glyph>
